<svg xmlns="http://www.w3.org/2000/svg" xmlns:xlink="http://www.w3.org/1999/xlink" width="150" height="150" viewBox="0 0 150 150">
  <defs>
    <clipPath id="clip-path">
      <rect id="長方形_3654" data-name="長方形 3654" width="150" height="150" transform="translate(842 767)" fill="#b4b4b4" stroke="#707070" stroke-width="1"/>
    </clipPath>
  </defs>
  <g id="マスクグループ_3" data-name="マスクグループ 3" transform="translate(-842 -767)" clip-path="url(#clip-path)">
    <g id="グループ_21243" data-name="グループ 21243" transform="translate(842 767)">
      <path id="パス_26" data-name="パス 26" d="M117.362,240.919a.213.213,0,0,1,.2-.121l1.484.1a.214.214,0,0,1,.185.148l2.87,10.467a.111.111,0,0,1-.114.128l-1.245-.085a.208.208,0,0,1-.184-.164l-2.411-9.472-3.645,9.058a.208.208,0,0,1-.205.136l-1.079-.073a.111.111,0,0,1-.1-.142Z" transform="translate(-47.75 -101.643)" fill="#b4b4b4"/>
      <path id="パス_27" data-name="パス 27" d="M108.072,248.079a.162.162,0,0,1,.122.174l-.2,1.185a.162.162,0,0,1-.174.122l-1.081-.185a.163.163,0,0,1-.123-.174l.2-1.184a.162.162,0,0,1,.173-.123Zm1.482-8.525a.162.162,0,0,1,.122.173l-.694,3.768-.567,3.561a.162.162,0,0,1-.173.122l-1.1-.188a.162.162,0,0,1-.123-.174l.654-3.53.608-3.8a.161.161,0,0,1,.173-.122Z" transform="translate(-45.002 -101.038)" fill="#b4b4b4"/>
      <path id="パス_28" data-name="パス 28" d="M93.254,238.754a.148.148,0,0,1-.091-.18,3.155,3.155,0,0,1,3.988-1.739c2.321.628,3.133,2.576,2.517,4.853-.632,2.335-2.4,3.57-4.559,2.985s-3.038-2.409-2.414-4.887a.162.162,0,0,1,.184-.106l5.5,1.487c.443-1.811-.051-2.972-1.5-3.364a1.93,1.93,0,0,0-2.435,1.116.178.178,0,0,1-.213.1Zm2.1,4.958c1.234.333,2.16-.272,2.729-1.628l-4.178-1.13a2.129,2.129,0,0,0,1.448,2.758" transform="translate(-39.044 -99.904)" fill="#b4b4b4"/>
      <path id="パス_29" data-name="パス 29" d="M77.977,230.286a.178.178,0,0,1,.106.21L77,237.073l3.932-5.334a.178.178,0,0,1,.225-.066l1.171.51a.207.207,0,0,1,.118.216l-1.154,7.61a.111.111,0,0,1-.156.1l-.992-.432a.178.178,0,0,1-.105-.21l1.2-6.509-3.94,5.314a.179.179,0,0,1-.225.066l-1.226-.535a.179.179,0,0,1-.105-.21l1.121-6.445L73,236.4a.178.178,0,0,1-.225.066l-.881-.384a.127.127,0,0,1-.05-.186l4.707-6.061a.179.179,0,0,1,.226-.065Z" transform="translate(-30.317 -96.979)" fill="#b4b4b4"/>
      <path id="パス_30" data-name="パス 30" d="M57.828,218.462a.162.162,0,0,1,.037.21l-.646.869a2.721,2.721,0,0,1,2.813.282c1.711,1.2,1.622,3.264.328,5.111s-3.292,2.63-4.967,1.457a2.691,2.691,0,0,1-1.244-2.468L52,227.043a.162.162,0,0,1-.209.037l-.9-.63a.161.161,0,0,1-.036-.209l2.642-3.692,3.222-4.679a.162.162,0,0,1,.21-.037Zm1.351,1.975c-1.084-.759-2.329-.421-3.472,1.183s-1.148,2.976-.037,3.773c1.21.866,2.484.253,3.484-1.175,1.07-1.526,1.219-2.944.025-3.781" transform="translate(-21.457 -91.94)" fill="#b4b4b4"/>
      <path id="パス_31" data-name="パス 31" d="M45.429,210.693a.149.149,0,0,1,0-.2,3.154,3.154,0,0,1,4.341.291c1.772,1.625,1.6,3.728,0,5.467-1.635,1.783-3.771,2.067-5.422.554s-1.589-3.537.105-5.451a.161.161,0,0,1,.212-.009l4.2,3.85c1.227-1.4,1.322-2.663.213-3.679a1.929,1.929,0,0,0-2.675-.129.179.179,0,0,1-.235-.011Zm-.417,5.368c.941.863,2.043.752,3.171-.19l-3.189-2.926a2.129,2.129,0,0,0,.018,3.116" transform="translate(-18.214 -88.542)" fill="#b4b4b4"/>
      <path id="パス_32" data-name="パス 32" d="M39.43,201.073a.208.208,0,0,1,.246-.017,3.841,3.841,0,0,1,.823.656,1.955,1.955,0,0,1-.323,3.056l-3.4,3.009.558.63a.162.162,0,0,1-.013.212l-.573.508a.162.162,0,0,1-.212-.013l-.558-.629-1.328,1.2a.162.162,0,0,1-.212-.013l-.728-.821a.162.162,0,0,1,.013-.213l1.357-1.163-1.166-1.316a.162.162,0,0,1,.013-.212l.573-.508a.162.162,0,0,1,.212.013l1.166,1.316,3.373-2.989c.7-.618.7-1.043.263-1.538a3.89,3.89,0,0,0-.585-.525.117.117,0,0,1-.022-.182Z" transform="translate(-14.217 -84.854)" fill="#b4b4b4"/>
      <path id="パス_33" data-name="パス 33" d="M31.992,190.915a.162.162,0,0,1-.035.21l-.909.615a2.758,2.758,0,0,1,2.581,1.2c1.216,1.7.436,3.626-1.384,4.931s-3.977,1.39-5.167-.27a2.687,2.687,0,0,1-.344-2.749l-.813.62a.163.163,0,0,1-.21-.035l-.639-.892a.162.162,0,0,1,.035-.21l3-2.079L31.151,190a.161.161,0,0,1,.21.035Zm.617,2.331c-.78-1.087-2.058-1.169-3.655-.042-1.511,1.064-2,2.287-1.371,3.349a2.887,2.887,0,0,0,.2.3c.867,1.08,2.2.922,3.564-.058,1.5-1.077,2.113-2.366,1.264-3.551" transform="translate(-10.572 -80.191)" fill="#b4b4b4"/>
      <path id="パス_34" data-name="パス 34" d="M19.731,190.3a.164.164,0,0,1-.054.206l-1.038.606a.163.163,0,0,1-.206-.054l-.553-.947a.162.162,0,0,1,.054-.206l1.038-.606a.162.162,0,0,1,.206.054Zm7.478-4.35a.161.161,0,0,1-.054.205l-3.33,1.893L20.734,189.9a.163.163,0,0,1-.206-.054l-.56-.96a.16.16,0,0,1,.054-.205l3.123-1.772,3.3-1.978a.161.161,0,0,1,.205.054Z" transform="translate(-7.54 -78.055)" fill="#b4b4b4"/>
      <path id="パス_35" data-name="パス 35" d="M23.846,180.6a.162.162,0,0,1-.065.2l-4.627,2.3-4.464,2.356a.161.161,0,0,1-.2-.065L14,184.435a.161.161,0,0,1,.065-.2l4.506-2.242,4.584-2.417a.161.161,0,0,1,.2.065Z" transform="translate(-5.902 -75.794)" fill="#b4b4b4"/>
      <path id="パス_36" data-name="パス 36" d="M135.64,10.723a.215.215,0,0,1-.2.121l-1.484-.1a.214.214,0,0,1-.185-.148L130.9.128A.111.111,0,0,1,131.01,0l1.245.085a.209.209,0,0,1,.184.164L134.85,9.72,138.494.662A.208.208,0,0,1,138.7.525L139.779.6a.111.111,0,0,1,.1.142Z" transform="translate(-55.252 0)" fill="#b4b4b4"/>
      <path id="パス_37" data-name="パス 37" d="M147.769,12.56a.161.161,0,0,1-.122-.173l.694-3.767.567-3.561a.162.162,0,0,1,.174-.123l1.1.188a.16.16,0,0,1,.122.173l-.653,3.531-.608,3.8a.161.161,0,0,1-.173.123Zm1.483-8.525a.162.162,0,0,1-.123-.173l.2-1.185a.16.16,0,0,1,.173-.123l1.081.186a.161.161,0,0,1,.122.173l-.2,1.185a.161.161,0,0,1-.173.123Z" transform="translate(-62.323 -1.077)" fill="#b4b4b4"/>
      <path id="パス_38" data-name="パス 38" d="M160.928,14.863a.148.148,0,0,1,.091.18,3.155,3.155,0,0,1-3.988,1.739c-2.321-.628-3.133-2.576-2.517-4.853.632-2.335,2.4-3.57,4.56-2.985s3.037,2.409,2.414,4.887a.162.162,0,0,1-.184.106l-5.5-1.487c-.443,1.811.052,2.972,1.5,3.364a1.93,1.93,0,0,0,2.435-1.116.178.178,0,0,1,.213-.1Zm-2.1-4.958c-1.233-.333-2.16.272-2.729,1.628l4.178,1.13a2.129,2.129,0,0,0-1.449-2.758" transform="translate(-65.138 -3.715)" fill="#b4b4b4"/>
      <path id="パス_39" data-name="パス 39" d="M173.825,21.7a.178.178,0,0,1-.105-.21l1.081-6.577-3.931,5.334a.179.179,0,0,1-.226.066l-1.17-.51a.207.207,0,0,1-.119-.216l1.154-7.61a.111.111,0,0,1,.157-.1l.992.432a.178.178,0,0,1,.105.21l-1.2,6.509,3.94-5.314a.179.179,0,0,1,.225-.066l1.226.535a.179.179,0,0,1,.1.21l-1.121,6.445,3.862-5.25a.179.179,0,0,1,.225-.066l.881.384a.127.127,0,0,1,.05.186l-4.707,6.061a.179.179,0,0,1-.226.065Z" transform="translate(-71.486 -5.012)" fill="#b4b4b4"/>
      <path id="パス_40" data-name="パス 40" d="M194.073,34.312a.162.162,0,0,1-.038-.21l.646-.869a2.721,2.721,0,0,1-2.813-.282c-1.711-1.2-1.621-3.264-.328-5.111s3.292-2.63,4.966-1.457a2.69,2.69,0,0,1,1.244,2.468l2.149-3.119a.161.161,0,0,1,.209-.037l.9.63a.161.161,0,0,1,.036.209L198.4,30.226,195.181,34.9a.162.162,0,0,1-.209.037Zm-1.352-1.975c1.084.759,2.329.421,3.472-1.183s1.148-2.976.037-3.773c-1.21-.866-2.484-.253-3.484,1.175-1.07,1.526-1.219,2.944-.025,3.781" transform="translate(-80.444 -10.836)" fill="#b4b4b4"/>
      <path id="パス_41" data-name="パス 41" d="M208.374,43.01a.148.148,0,0,1,0,.2,3.154,3.154,0,0,1-4.341-.291c-1.772-1.625-1.6-3.728,0-5.467,1.635-1.783,3.771-2.067,5.422-.554s1.589,3.537-.105,5.451a.161.161,0,0,1-.212.009l-4.2-3.85c-1.226,1.4-1.32,2.663-.213,3.679a1.93,1.93,0,0,0,2.676.129.178.178,0,0,1,.234.011Zm.417-5.368c-.941-.863-2.043-.752-3.172.19l3.189,2.926a2.129,2.129,0,0,0-.017-3.116" transform="translate(-85.59 -15.163)" fill="#b4b4b4"/>
      <path id="パス_42" data-name="パス 42" d="M214.722,52.141a.208.208,0,0,1-.246.017,3.837,3.837,0,0,1-.822-.656,1.955,1.955,0,0,1,.322-3.056l3.4-3.009-.558-.63a.161.161,0,0,1,.013-.212l.573-.508a.162.162,0,0,1,.212.013l.558.629,1.328-1.2a.162.162,0,0,1,.212.013l.728.821a.162.162,0,0,1-.013.213l-1.357,1.163,1.166,1.316a.162.162,0,0,1-.013.212l-.573.508a.162.162,0,0,1-.212-.013l-1.166-1.316L214.9,49.438c-.7.618-.7,1.043-.263,1.538a3.892,3.892,0,0,0,.585.525.118.118,0,0,1,.021.182Z" transform="translate(-89.936 -18.361)" fill="#b4b4b4"/>
      <path id="パス_43" data-name="パス 43" d="M220.876,62.168a.162.162,0,0,1,.035-.21l.909-.615a2.757,2.757,0,0,1-2.58-1.2c-1.217-1.7-.436-3.626,1.383-4.931s3.977-1.39,5.167.27a2.686,2.686,0,0,1,.344,2.749l.813-.62a.164.164,0,0,1,.21.035l.639.892a.161.161,0,0,1-.035.21l-3,2.079-3.043,2.256a.161.161,0,0,1-.21-.035Zm-.617-2.331c.78,1.087,2.058,1.168,3.655.042,1.511-1.064,2-2.287,1.371-3.349a2.8,2.8,0,0,0-.2-.3c-.867-1.08-2.2-.922-3.563.058-1.5,1.077-2.114,2.366-1.264,3.551" transform="translate(-92.296 -22.893)" fill="#b4b4b4"/>
      <path id="パス_44" data-name="パス 44" d="M225.516,69.08a.161.161,0,0,1,.054-.205l3.33-1.893,3.091-1.856a.161.161,0,0,1,.205.054l.561.959a.162.162,0,0,1-.054.206l-3.123,1.772-3.3,1.978a.161.161,0,0,1-.206-.055ZM233,64.73a.162.162,0,0,1,.054-.205l1.038-.606a.161.161,0,0,1,.205.054l.553.947a.162.162,0,0,1-.054.206l-1.037.606a.162.162,0,0,1-.205-.054Z" transform="translate(-95.186 -26.973)" fill="#b4b4b4"/>
      <path id="パス_45" data-name="パス 45" d="M228.5,74.64a.162.162,0,0,1,.065-.2l4.626-2.3,4.464-2.356a.162.162,0,0,1,.2.065l.494.963a.162.162,0,0,1-.065.2l-4.506,2.242L229.2,75.667a.162.162,0,0,1-.2-.065Z" transform="translate(-96.447 -29.448)" fill="#b4b4b4"/>
      <path id="パス_46" data-name="パス 46" d="M240.921,135.639a.215.215,0,0,1-.122-.2l.1-1.484a.215.215,0,0,1,.148-.186l10.467-2.87a.111.111,0,0,1,.128.114l-.085,1.245a.209.209,0,0,1-.164.184l-9.472,2.411,9.059,3.645a.206.206,0,0,1,.136.2l-.073,1.08a.112.112,0,0,1-.143.1Z" transform="translate(-101.644 -55.251)" fill="#b4b4b4"/>
      <path id="パス_47" data-name="パス 47" d="M239.557,147.768a.161.161,0,0,1,.173-.122l3.767.694,3.561.567a.161.161,0,0,1,.123.173l-.188,1.1a.161.161,0,0,1-.174.123l-3.53-.654-3.8-.608a.161.161,0,0,1-.122-.173Zm8.525,1.483a.161.161,0,0,1,.174-.122l1.184.2a.16.16,0,0,1,.122.173l-.186,1.081a.162.162,0,0,1-.174.122l-1.184-.2a.161.161,0,0,1-.123-.173Z" transform="translate(-101.039 -62.322)" fill="#b4b4b4"/>
      <path id="パス_48" data-name="パス 48" d="M238.756,160.927a.149.149,0,0,1-.18.092,3.155,3.155,0,0,1-1.739-3.989c.628-2.321,2.576-3.133,4.853-2.517,2.335.632,3.57,2.4,2.985,4.559s-2.409,3.037-4.887,2.414a.161.161,0,0,1-.106-.184l1.487-5.5c-1.811-.443-2.972.052-3.364,1.5a1.93,1.93,0,0,0,1.116,2.435.178.178,0,0,1,.1.213Zm4.958-2.1c.333-1.233-.272-2.16-1.628-2.729l-1.13,4.178a2.129,2.129,0,0,0,2.758-1.449" transform="translate(-99.904 -65.138)" fill="#b4b4b4"/>
      <path id="パス_49" data-name="パス 49" d="M230.288,173.825a.178.178,0,0,1,.21-.105l6.577,1.081-5.334-3.932a.179.179,0,0,1-.066-.225l.51-1.171a.208.208,0,0,1,.216-.119l7.611,1.155a.111.111,0,0,1,.1.157l-.432.992a.179.179,0,0,1-.21.105l-6.509-1.2,5.314,3.94a.18.18,0,0,1,.066.225l-.535,1.226a.179.179,0,0,1-.21.105l-6.445-1.122,5.25,3.863a.179.179,0,0,1,.066.225l-.384.881a.127.127,0,0,1-.186.05l-6.061-4.708a.178.178,0,0,1-.065-.225Z" transform="translate(-96.98 -71.485)" fill="#b4b4b4"/>
      <path id="パス_50" data-name="パス 50" d="M218.465,194.072a.162.162,0,0,1,.209-.037l.869.646a2.724,2.724,0,0,1,.282-2.813c1.2-1.711,3.265-1.622,5.111-.328s2.63,3.292,1.457,4.966a2.693,2.693,0,0,1-2.469,1.244l3.12,2.149a.163.163,0,0,1,.036.209l-.629.9a.162.162,0,0,1-.21.037l-3.692-2.641-4.679-3.223a.162.162,0,0,1-.038-.209Zm1.974-1.351c-.758,1.084-.421,2.329,1.184,3.471s2.976,1.149,3.772.038c.866-1.21.254-2.484-1.174-3.484-1.527-1.07-2.945-1.219-3.782-.025" transform="translate(-91.941 -80.444)" fill="#b4b4b4"/>
      <path id="パス_51" data-name="パス 51" d="M210.7,208.373a.149.149,0,0,1-.2,0,3.156,3.156,0,0,1,.291-4.342c1.626-1.772,3.728-1.6,5.467,0,1.782,1.635,2.067,3.772.553,5.422s-3.537,1.589-5.45-.105a.161.161,0,0,1-.01-.212l3.85-4.2c-1.4-1.226-2.663-1.321-3.678-.213a1.93,1.93,0,0,0-.129,2.675.178.178,0,0,1-.011.235Zm5.368.417c.863-.941.752-2.043-.191-3.172l-2.926,3.189a2.13,2.13,0,0,0,3.117-.017" transform="translate(-88.543 -85.589)" fill="#b4b4b4"/>
      <path id="パス_52" data-name="パス 52" d="M201.076,214.721a.207.207,0,0,1-.017-.246,3.855,3.855,0,0,1,.656-.823,1.956,1.956,0,0,1,3.056.322l3.009,3.4.629-.558a.161.161,0,0,1,.212.013l.509.573a.161.161,0,0,1-.013.212l-.629.558,1.2,1.328a.161.161,0,0,1-.013.212l-.821.728a.162.162,0,0,1-.212-.013l-1.163-1.358-1.315,1.166a.161.161,0,0,1-.212-.013l-.508-.573a.161.161,0,0,1,.013-.212l1.315-1.166-2.989-3.373c-.619-.7-1.044-.7-1.538-.263a3.89,3.89,0,0,0-.525.585.117.117,0,0,1-.181.021Z" transform="translate(-84.855 -89.935)" fill="#b4b4b4"/>
      <path id="パス_53" data-name="パス 53" d="M190.918,220.876a.161.161,0,0,1,.209.035l.615.909a2.757,2.757,0,0,1,1.2-2.58c1.7-1.218,3.625-.436,4.93,1.383s1.39,3.977-.27,5.167a2.685,2.685,0,0,1-2.75.344l.62.813a.162.162,0,0,1-.034.21l-.892.639a.161.161,0,0,1-.21-.035l-2.079-3L190,221.716a.162.162,0,0,1,.034-.21Zm2.331-.617c-1.087.78-1.168,2.058-.043,3.655,1.065,1.511,2.287,2,3.35,1.371a2.883,2.883,0,0,0,.3-.2c1.08-.867.922-2.2-.058-3.564-1.077-1.5-2.365-2.113-3.55-1.264" transform="translate(-80.192 -92.296)" fill="#b4b4b4"/>
      <path id="パス_54" data-name="パス 54" d="M185.949,225.516a.162.162,0,0,1,.205.054l1.893,3.33,1.857,3.09a.162.162,0,0,1-.054.206l-.96.561a.163.163,0,0,1-.206-.054l-1.771-3.123-1.979-3.3a.161.161,0,0,1,.054-.206Zm4.35,7.479a.161.161,0,0,1,.205.054l.606,1.038a.162.162,0,0,1-.054.206l-.947.553a.163.163,0,0,1-.206-.054l-.605-1.038a.16.16,0,0,1,.053-.205Z" transform="translate(-78.056 -95.185)" fill="#b4b4b4"/>
      <path id="パス_55" data-name="パス 55" d="M180.6,228.5a.162.162,0,0,1,.2.065l2.3,4.626,2.356,4.464a.162.162,0,0,1-.065.2l-.963.493a.162.162,0,0,1-.2-.065l-2.242-4.506-2.417-4.584a.162.162,0,0,1,.065-.2Z" transform="translate(-75.796 -96.447)" fill="#b4b4b4"/>
      <path id="パス_56" data-name="パス 56" d="M10.723,117.358a.214.214,0,0,1,.122.2l-.1,1.484a.214.214,0,0,1-.148.186L.128,122.1A.111.111,0,0,1,0,121.988l.086-1.245a.207.207,0,0,1,.163-.184l9.472-2.411L.662,114.5a.208.208,0,0,1-.136-.205L.6,113.218a.111.111,0,0,1,.142-.1Z" transform="translate(0 -47.748)" fill="#b4b4b4"/>
      <path id="パス_57" data-name="パス 57" d="M4.036,108.069a.161.161,0,0,1-.173.123l-1.185-.2a.161.161,0,0,1-.122-.173l.186-1.081a.162.162,0,0,1,.174-.123l1.184.2a.161.161,0,0,1,.123.173Zm8.526,1.483a.162.162,0,0,1-.174.123L8.62,108.98l-3.561-.567a.161.161,0,0,1-.123-.173l.188-1.1a.162.162,0,0,1,.174-.123l3.53.654,3.8.608a.161.161,0,0,1,.123.173Z" transform="translate(-1.078 -45.001)" fill="#b4b4b4"/>
      <path id="パス_58" data-name="パス 58" d="M14.864,93.251a.149.149,0,0,1,.18-.092,3.155,3.155,0,0,1,1.738,3.989c-.628,2.321-2.575,3.133-4.853,2.517-2.335-.632-3.57-2.4-2.985-4.559s2.409-3.037,4.887-2.414a.162.162,0,0,1,.106.184l-1.487,5.5c1.811.443,2.972-.052,3.364-1.5A1.93,1.93,0,0,0,14.7,94.436a.177.177,0,0,1-.1-.213Zm-4.958,2.1c-.333,1.233.272,2.16,1.628,2.729l1.13-4.178A2.129,2.129,0,0,0,9.907,95.35" transform="translate(-3.715 -39.043)" fill="#b4b4b4"/>
      <path id="パス_59" data-name="パス 59" d="M21.7,77.973a.177.177,0,0,1-.209.105L14.917,77l5.334,3.932a.179.179,0,0,1,.066.225l-.51,1.171a.208.208,0,0,1-.216.119L11.98,81.29a.111.111,0,0,1-.1-.157l.433-.992a.178.178,0,0,1,.209-.105l6.51,1.2L13.721,77.3a.18.18,0,0,1-.066-.225l.535-1.226a.179.179,0,0,1,.21-.105l6.445,1.122L15.6,73a.179.179,0,0,1-.066-.225l.384-.881a.127.127,0,0,1,.186-.05l6.061,4.708a.178.178,0,0,1,.065.225Z" transform="translate(-5.012 -30.316)" fill="#b4b4b4"/>
      <path id="パス_60" data-name="パス 60" d="M34.313,57.824a.163.163,0,0,1-.21.037l-.869-.646a2.72,2.72,0,0,1-.283,2.813c-1.2,1.711-3.264,1.622-5.111.328s-2.629-3.292-1.457-4.966a2.694,2.694,0,0,1,2.469-1.244L25.733,52a.162.162,0,0,1-.037-.21l.629-.9a.161.161,0,0,1,.209-.037l3.692,2.641,4.679,3.223a.16.16,0,0,1,.037.209Zm-1.975,1.351c.759-1.084.421-2.329-1.184-3.471s-2.976-1.149-3.772-.038c-.866,1.21-.253,2.484,1.174,3.484,1.527,1.07,2.945,1.219,3.782.025" transform="translate(-10.836 -21.455)" fill="#b4b4b4"/>
      <path id="パス_61" data-name="パス 61" d="M43.01,45.425a.149.149,0,0,1,.2,0,3.156,3.156,0,0,1-.291,4.342c-1.626,1.772-3.729,1.6-5.467,0C35.672,48.136,35.388,46,36.9,44.349s3.537-1.589,5.45.105a.161.161,0,0,1,.009.212l-3.85,4.2c1.4,1.226,2.663,1.321,3.679.213a1.929,1.929,0,0,0,.129-2.675.179.179,0,0,1,.01-.235Zm-5.368-.417c-.863.941-.752,2.043.19,3.172l2.926-3.189a2.129,2.129,0,0,0-3.116.017" transform="translate(-15.163 -18.212)" fill="#b4b4b4"/>
      <path id="パス_62" data-name="パス 62" d="M52.141,39.426a.207.207,0,0,1,.017.246,3.836,3.836,0,0,1-.656.823,1.956,1.956,0,0,1-3.056-.323l-3.009-3.4-.629.558a.161.161,0,0,1-.212-.013l-.509-.573a.163.163,0,0,1,.013-.213l.629-.557-1.2-1.329a.161.161,0,0,1,.013-.212l.821-.728a.162.162,0,0,1,.212.013l1.163,1.358,1.315-1.166a.161.161,0,0,1,.212.014l.508.573a.162.162,0,0,1-.012.212l-1.316,1.166,2.989,3.374c.618.7,1.043.7,1.538.263a3.948,3.948,0,0,0,.525-.585.117.117,0,0,1,.182-.022Z" transform="translate(-18.361 -14.215)" fill="#b4b4b4"/>
      <path id="パス_63" data-name="パス 63" d="M62.167,31.987a.161.161,0,0,1-.209-.035l-.615-.909a2.756,2.756,0,0,1-1.2,2.58c-1.7,1.218-3.625.436-4.93-1.383s-1.39-3.977.27-5.167a2.684,2.684,0,0,1,2.749-.344l-.62-.813a.162.162,0,0,1,.035-.21l.892-.639a.161.161,0,0,1,.209.035l2.079,3,2.255,3.043a.162.162,0,0,1-.034.21Zm-2.331.617c1.087-.78,1.168-2.058.042-3.655-1.065-1.511-2.287-2-3.349-1.371a2.887,2.887,0,0,0-.3.2c-1.08.867-.922,2.2.058,3.564,1.077,1.5,2.365,2.113,3.551,1.264" transform="translate(-22.892 -10.571)" fill="#b4b4b4"/>
      <path id="パス_64" data-name="パス 64" d="M64.73,19.725a.162.162,0,0,1-.206-.054l-.606-1.038a.163.163,0,0,1,.054-.206l.947-.553a.162.162,0,0,1,.205.054l.606,1.038a.16.16,0,0,1-.054.205ZM69.08,27.2a.161.161,0,0,1-.205-.054l-1.893-3.33-1.857-3.091a.163.163,0,0,1,.054-.206l.96-.561a.163.163,0,0,1,.206.054l1.771,3.123,1.978,3.3a.162.162,0,0,1-.054.206Z" transform="translate(-26.973 -7.538)" fill="#b4b4b4"/>
      <path id="パス_65" data-name="パス 65" d="M74.64,23.842a.162.162,0,0,1-.2-.065l-2.3-4.626-2.355-4.464a.161.161,0,0,1,.065-.2l.963-.493a.161.161,0,0,1,.2.065l2.242,4.506,2.417,4.584a.162.162,0,0,1-.065.2Z" transform="translate(-29.448 -5.9)" fill="#b4b4b4"/>
      <path id="パス_66" data-name="パス 66" d="M104.526,12.519A1.721,1.721,0,1,1,102.8,10.8a1.721,1.721,0,0,1,1.721,1.721" transform="translate(-42.669 -4.558)" fill="#b4b4b4"/>
      <path id="パス_67" data-name="パス 67" d="M244.531,104.523a1.721,1.721,0,1,1,1.721-1.721,1.721,1.721,0,0,1-1.721,1.721" transform="translate(-102.492 -42.667)" fill="#b4b4b4"/>
      <path id="パス_68" data-name="パス 68" d="M152.526,244.527a1.721,1.721,0,1,1,1.721,1.721,1.721,1.721,0,0,1-1.721-1.721" transform="translate(-64.383 -102.491)" fill="#b4b4b4"/>
      <path id="パス_69" data-name="パス 69" d="M12.522,152.523a1.721,1.721,0,1,1-1.721,1.721,1.721,1.721,0,0,1,1.721-1.721" transform="translate(-4.559 -64.382)" fill="#b4b4b4"/>
    </g>
  </g>
</svg>
