<svg xmlns="http://www.w3.org/2000/svg" xmlns:xlink="http://www.w3.org/1999/xlink" width="28" height="28" viewBox="0 0 28 28">
  <defs>
    <clipPath id="clip-path">
      <rect id="長方形_7" data-name="長方形 7" width="28" height="28" fill="none"/>
    </clipPath>
  </defs>
  <g id="_レイヤー_1-2" transform="translate(28) rotate(90)">
    <g id="グループ_80" data-name="グループ 80" clip-path="url(#clip-path)">
      <path id="パス_1" data-name="パス 1" d="M19.346,10.652A19.122,19.122,0,0,1,12.724,2.28a.82.82,0,0,0-.14-.238.54.54,0,0,0-.238-.154h0a.187.187,0,0,1-.07-.014h0s-.1-.014-.14-.014a.574.574,0,0,0-.154.014H11.94a.472.472,0,0,0-.238.154.752.752,0,0,0-.14.224A18.966,18.966,0,0,1,4.94,10.624a.635.635,0,0,0,.714,1.05,19.523,19.523,0,0,0,5.81-6.342v18.62a.7.7,0,0,0,1.4,0V5.346a19.662,19.662,0,0,0,5.81,6.342.686.686,0,0,0,.35.112.615.615,0,0,0,.518-.28.631.631,0,0,0-.168-.882Z" transform="translate(1.864 0.744)" fill="#fff"/>
    </g>
  </g>
</svg>
