<svg xmlns="http://www.w3.org/2000/svg" xmlns:xlink="http://www.w3.org/1999/xlink" width="18" height="18" viewBox="0 0 18 18">
  <defs>
    <clipPath id="clip-path">
      <rect id="長方形_38" data-name="長方形 38" width="18" height="18" transform="translate(150 781)" fill="#fff" stroke="#707070" stroke-width="1"/>
    </clipPath>
  </defs>
  <g id="マスクグループ_2" data-name="マスクグループ 2" transform="translate(-150 -781)" clip-path="url(#clip-path)">
    <path id="location_on_FILL1_wght400_GRAD200_opsz48" d="M160.3-871.246a26,26,0,0,1-4.736-5A7.782,7.782,0,0,1,154-880.525a6.118,6.118,0,0,1,1.9-4.718A6.278,6.278,0,0,1,160.3-887a6.331,6.331,0,0,1,4.412,1.757,6.094,6.094,0,0,1,1.914,4.718,7.752,7.752,0,0,1-1.575,4.279A26.29,26.29,0,0,1,160.3-871.246Z" transform="translate(-1.3 1668.9)" fill="#fff"/>
  </g>
</svg>
