<svg xmlns="http://www.w3.org/2000/svg" xmlns:xlink="http://www.w3.org/1999/xlink" width="30" height="30" viewBox="0 0 30 30">
  <defs>
    <clipPath id="clip-path">
      <rect id="長方形_7" data-name="長方形 7" width="30" height="30" fill="none"/>
    </clipPath>
  </defs>
  <g id="_レイヤー_1-2" transform="translate(30 30) rotate(180)">
    <g id="グループ_80" data-name="グループ 80" clip-path="url(#clip-path)">
      <path id="パス_1" data-name="パス 1" d="M20.394,11.28a20.488,20.488,0,0,1-7.1-8.97.878.878,0,0,0-.15-.255.579.579,0,0,0-.255-.165h0a.2.2,0,0,1-.075-.015h0s-.1-.015-.15-.015a.615.615,0,0,0-.165.015h-.045a.505.505,0,0,0-.255.165.806.806,0,0,0-.15.24,20.32,20.32,0,0,1-7.095,8.97.68.68,0,1,0,.765,1.125A20.917,20.917,0,0,0,11.949,5.58V25.53a.75.75,0,0,0,1.5,0V5.595a21.067,21.067,0,0,0,6.225,6.795.736.736,0,0,0,.375.12.659.659,0,0,0,.555-.3.677.677,0,0,0-.18-.945Z" transform="translate(2.331 0.93)" fill="#fff"/>
    </g>
  </g>
</svg>
