<svg xmlns="http://www.w3.org/2000/svg" xmlns:xlink="http://www.w3.org/1999/xlink" width="24" height="24" viewBox="0 0 24 24">
  <defs>
    <clipPath id="clip-path">
      <rect id="長方形_7" data-name="長方形 7" width="24" height="24" fill="none"/>
    </clipPath>
  </defs>
  <g id="_レイヤー_1-2" transform="translate(24) rotate(90)">
    <g id="グループ_80" data-name="グループ 80" clip-path="url(#clip-path)">
      <path id="パス_1" data-name="パス 1" d="M17.248,9.4A16.39,16.39,0,0,1,11.572,2.22a.7.7,0,0,0-.12-.2.463.463,0,0,0-.2-.132h0a.161.161,0,0,1-.06-.012h0s-.084-.012-.12-.012a.492.492,0,0,0-.132.012H10.9A.4.4,0,0,0,10.7,2a.645.645,0,0,0-.12.192A16.256,16.256,0,0,1,4.9,9.372a.544.544,0,0,0,.612.9,16.734,16.734,0,0,0,4.98-5.436V20.8a.6.6,0,0,0,1.2,0V4.848a16.853,16.853,0,0,0,4.98,5.436.588.588,0,0,0,.3.1.527.527,0,0,0,.444-.24.541.541,0,0,0-.144-.756Z" transform="translate(0.932 0.372)" fill="#3f3f3f"/>
    </g>
  </g>
</svg>
