<svg xmlns="http://www.w3.org/2000/svg" xmlns:xlink="http://www.w3.org/1999/xlink" width="160" height="160" viewBox="0 0 160 160">
  <defs>
    <clipPath id="clip-path">
      <rect id="長方形_8" data-name="長方形 8" width="160" height="160" transform="translate(845 456)" fill="#fff" stroke="#707070" stroke-width="1"/>
    </clipPath>
  </defs>
  <g id="マスクグループ_1" data-name="マスクグループ 1" transform="translate(-845 -456)" clip-path="url(#clip-path)">
    <g id="グループ_81" data-name="グループ 81" transform="translate(852.76 456.001)">
      <path id="パス_2" data-name="パス 2" d="M125.39,13.137c-3.2-.25-4.978-1.916-4.88-4.8a.2.2,0,0,1,.2-.167l1.374.107a.212.212,0,0,1,.184.2c.016,1.893.829,3.119,3.287,3.311,1.879.146,3.27-.436,3.4-2.1.274-3.507-8.168-1.583-7.792-6.391.18-2.313,2.126-3.489,4.91-3.271,2.892.225,4.586,1.576,4.674,4.183a.166.166,0,0,1-.177.168l-1.391-.109a.21.21,0,0,1-.185-.2c-.019-1.62-1.022-2.516-3.064-2.676-1.735-.135-3,.421-3.11,1.867-.254,3.253,8.183,1.384,7.8,6.336-.2,2.6-2.348,3.762-5.222,3.538" transform="translate(-47.686 -0.001)" fill="#fff"/>
      <path id="パス_3" data-name="パス 3" d="M142.583,17.939c-2.721-.624-3.828-2.85-3.171-5.712s2.637-4.435,5.393-3.8a3.594,3.594,0,0,1,3.1,4.061.166.166,0,0,1-.2.14l-1.131-.259a.216.216,0,0,1-.172-.225,2.277,2.277,0,0,0-1.878-2.514c-1.784-.41-2.933.7-3.452,2.964-.531,2.315.033,3.745,1.813,4.174a2.376,2.376,0,0,0,2.962-1.72.211.211,0,0,1,.235-.132l1.148.264a.166.166,0,0,1,.118.213,3.81,3.81,0,0,1-4.77,2.549" transform="translate(-55.094 -3.279)" fill="#fff"/>
      <path id="パス_4" data-name="パス 4" d="M153.11,20.353a.2.2,0,0,1-.111-.231l1.6-4.3,1.394-4.161a.194.194,0,0,1,.231-.111l1.231.434a.2.2,0,0,1,.111.231l-.576,1.469A3.52,3.52,0,0,1,160.593,13a2.189,2.189,0,0,1,.46.22.232.232,0,0,1,.1.249l-.326.923a.15.15,0,0,1-.225.094,2.251,2.251,0,0,0-.483-.21,3.033,3.033,0,0,0-3.931,1.765l-1.6,4.645a.2.2,0,0,1-.231.111Z" transform="translate(-60.541 -4.567)" fill="#fff"/>
      <path id="パス_5" data-name="パス 5" d="M165.845,26.142c-2.55-1.223-3.158-3.645-1.888-6.294,1.277-2.664,3.562-3.741,6.113-2.518,2.567,1.231,3.15,3.662,1.881,6.311s-3.539,3.732-6.105,2.5m.525-1.1c1.651.792,3.017,0,4.028-2.11s.781-3.727-.853-4.51c-1.676-.783-3.056.043-4.067,2.152s-.758,3.677.893,4.469" transform="translate(-64.626 -6.659)" fill="#fff"/>
      <path id="パス_6" data-name="パス 6" d="M176.056,29.3a.2.2,0,0,1-.062-.249l3.285-5.3,3.085-5.252a.2.2,0,0,1,.249-.061l1.117.674a.2.2,0,0,1,.062.249l-3.2,5.161-3.169,5.391a.2.2,0,0,1-.249.061Z" transform="translate(-69.635 -7.286)" fill="#fff"/>
      <path id="パス_7" data-name="パス 7" d="M181.8,33.2a.2.2,0,0,1-.047-.252l3.6-5.091,3.4-5.054a.2.2,0,0,1,.252-.046l1.074.741a.2.2,0,0,1,.047.252l-3.51,4.957-3.493,5.188a.2.2,0,0,1-.253.046Z" transform="translate(-71.912 -8.994)" fill="#fff"/>
      <path id="パス_8" data-name="パス 8" d="M196.232,47.227a.194.194,0,0,1-.009-.256l.916-.93a3.282,3.282,0,0,1-3.311-.807c-1.843-1.717-1.391-4.17.462-6.159s4.371-2.591,6.175-.91a3.245,3.245,0,0,1,1.073,3.155l3.087-3.366a.2.2,0,0,1,.256-.009l.968.9a.2.2,0,0,1,.009.256l-3.771,3.967-4.631,5.049a.193.193,0,0,1-.256.009Zm-1.284-2.583c1.167,1.087,2.711.892,4.344-.833s1.869-3.362.675-4.5c-1.3-1.236-2.924-.717-4.357.821-1.532,1.644-1.948,3.313-.662,4.512" transform="translate(-76.235 -14.717)" fill="#fff"/>
      <path id="パス_9" data-name="パス 9" d="M204.794,56.991c-1.791-2.189-1.313-4.641.96-6.5s4.813-1.876,6.6.314,1.3,4.652-.974,6.512-4.788,1.878-6.59-.325m.94-.769c1.16,1.418,2.733,1.279,4.543-.2s2.289-3.043,1.141-4.447c-1.185-1.419-2.786-1.258-4.6.223s-2.246,3.009-1.087,4.426" transform="translate(-80.608 -19.439)" fill="#fff"/>
      <path id="パス_10" data-name="パス 10" d="M215.615,71.5a.215.215,0,0,1,.047-.279l5.73-5.643-7.626,2.4a.215.215,0,0,1-.266-.1l-.778-1.33a.25.25,0,0,1,.037-.295l6.537-6.6a.134.134,0,0,1,.221.018l.659,1.127a.215.215,0,0,1-.047.279l-5.8,5.492,7.619-2.378a.214.214,0,0,1,.266.1l.815,1.392a.216.216,0,0,1-.047.28l-5.676,5.485,7.5-2.371a.216.216,0,0,1,.266.1l.586,1a.154.154,0,0,1-.083.217l-8.9,2.56a.215.215,0,0,1-.267-.1Z" transform="translate(-84.164 -23.59)" fill="#fff"/>
      <path id="パス_11" data-name="パス 11" d="M221.194,84.132a.2.2,0,0,1,.1-.234l3.829-1.407,4.544-1.821a.2.2,0,0,1,.234.1l.453,1.167a.2.2,0,0,1-.1.234l-1.314.471a3.571,3.571,0,0,1,2.794,2.241c.695,1.792-.056,3.366-2.32,4.245l-1.741.676-3.53,1.427a.2.2,0,0,1-.234-.1l-.479-1.233a.2.2,0,0,1,.1-.235l3.562-1.343,1.673-.648c1.572-.61,1.993-1.629,1.567-2.728-.439-1.132-1.713-1.708-3.568-1.377l-1.319.511-3.536,1.41a.2.2,0,0,1-.234-.1Z" transform="translate(-87.525 -31.918)" fill="#fff"/>
      <path id="パス_12" data-name="パス 12" d="M107.009,243.018c3.2.25,4.978,1.916,4.88,4.8a.2.2,0,0,1-.2.167l-1.374-.107a.212.212,0,0,1-.184-.2c-.016-1.893-.829-3.119-3.287-3.311-1.879-.146-3.27.436-3.4,2.1-.274,3.507,8.168,1.583,7.792,6.391-.18,2.313-2.126,3.489-4.91,3.271-2.891-.225-4.586-1.576-4.674-4.183a.166.166,0,0,1,.177-.168l1.391.109a.21.21,0,0,1,.185.2c.019,1.62,1.022,2.516,3.064,2.676,1.735.135,3-.421,3.11-1.867.254-3.253-8.183-1.384-7.8-6.336.2-2.6,2.348-3.762,5.222-3.538" transform="translate(-40.227 -96.155)" fill="#fff"/>
      <path id="パス_13" data-name="パス 13" d="M90.816,240.428c2.72.625,3.828,2.85,3.171,5.712s-2.637,4.435-5.393,3.8a3.6,3.6,0,0,1-3.1-4.061.167.167,0,0,1,.2-.14l1.131.26a.216.216,0,0,1,.172.225,2.277,2.277,0,0,0,1.878,2.514c1.784.41,2.933-.7,3.452-2.964.531-2.315-.033-3.746-1.813-4.174a2.376,2.376,0,0,0-2.962,1.72.212.212,0,0,1-.235.132l-1.148-.264a.166.166,0,0,1-.118-.213,3.81,3.81,0,0,1,4.77-2.55" transform="translate(-33.818 -95.088)" fill="#fff"/>
      <path id="パス_14" data-name="パス 14" d="M80.638,238.358a.2.2,0,0,1,.111.231l-1.6,4.3-1.393,4.161a.194.194,0,0,1-.231.111l-1.231-.435a.2.2,0,0,1-.111-.231l.576-1.469a3.52,3.52,0,0,1-3.608.686,2.193,2.193,0,0,1-.46-.22.232.232,0,0,1-.1-.249l.326-.923a.15.15,0,0,1,.225-.094,2.252,2.252,0,0,0,.483.21,3.033,3.033,0,0,0,3.931-1.765l1.6-4.645a.2.2,0,0,1,.231-.111Z" transform="translate(-28.722 -94.144)" fill="#fff"/>
      <path id="パス_15" data-name="パス 15" d="M67.178,232.2c2.55,1.222,3.158,3.645,1.888,6.294-1.277,2.664-3.562,3.741-6.113,2.518-2.567-1.231-3.15-3.662-1.881-6.311s3.539-3.732,6.105-2.5m-.525,1.095c-1.651-.792-3.017,0-4.028,2.111s-.781,3.727.853,4.51c1.676.783,3.056-.043,4.067-2.152s.758-3.678-.893-4.469" transform="translate(-23.911 -91.687)" fill="#fff"/>
      <path id="パス_16" data-name="パス 16" d="M57.91,227.9a.2.2,0,0,1,.062.249l-3.285,5.3L51.6,238.7a.2.2,0,0,1-.249.061l-1.117-.674a.2.2,0,0,1-.062-.249l3.2-5.161,3.169-5.391a.2.2,0,0,1,.249-.061Z" transform="translate(-19.846 -89.906)" fill="#fff"/>
      <path id="パス_17" data-name="パス 17" d="M51.778,224.217a.2.2,0,0,1,.047.252l-3.6,5.091-3.4,5.054a.2.2,0,0,1-.252.046l-1.074-.741a.2.2,0,0,1-.047-.252l3.51-4.957,3.493-5.188a.2.2,0,0,1,.253-.046Z" transform="translate(-17.182 -88.422)" fill="#fff"/>
      <path id="パス_18" data-name="パス 18" d="M34.193,210.358a.193.193,0,0,1,.009.256l-.915.93a3.282,3.282,0,0,1,3.311.807c1.843,1.717,1.391,4.17-.462,6.159s-4.371,2.591-6.175.91a3.245,3.245,0,0,1-1.073-3.155L25.8,219.63a.2.2,0,0,1-.256.009l-.968-.9a.2.2,0,0,1-.009-.256l3.771-3.967,4.631-5.049a.194.194,0,0,1,.256-.009Zm1.284,2.583c-1.167-1.087-2.711-.892-4.344.833s-1.869,3.362-.675,4.5c1.3,1.236,2.924.717,4.357-.821,1.532-1.644,1.948-3.313.662-4.512" transform="translate(-9.704 -82.867)" fill="#fff"/>
      <path id="パス_19" data-name="パス 19" d="M27.925,201.527c1.791,2.189,1.313,4.641-.96,6.5s-4.813,1.876-6.6-.314-1.3-4.652.974-6.512,4.788-1.878,6.59.325m-.94.769c-1.16-1.418-2.733-1.279-4.543.2s-2.289,3.043-1.141,4.447c1.185,1.419,2.786,1.258,4.6-.223s2.246-3.009,1.087-4.426" transform="translate(-7.625 -79.079)" fill="#fff"/>
      <path id="パス_20" data-name="パス 20" d="M14.981,184.53a.215.215,0,0,1-.047.279L9.2,190.452l7.626-2.4a.215.215,0,0,1,.266.1l.778,1.33a.25.25,0,0,1-.037.295l-6.537,6.6a.135.135,0,0,1-.221-.018l-.659-1.127a.215.215,0,0,1,.047-.279l5.8-5.492-7.619,2.379a.214.214,0,0,1-.266-.1l-.815-1.392a.216.216,0,0,1,.047-.28l5.676-5.484-7.5,2.371a.216.216,0,0,1-.266-.1l-.586-1a.154.154,0,0,1,.083-.217l8.9-2.56a.215.215,0,0,1,.266.1Z" transform="translate(-1.945 -72.438)" fill="#fff"/>
      <path id="パス_21" data-name="パス 21" d="M10.837,173.714a.2.2,0,0,1-.1.234L6.9,175.356l-4.544,1.821a.2.2,0,0,1-.234-.1l-.453-1.167a.2.2,0,0,1,.1-.234l1.314-.471A3.571,3.571,0,0,1,.3,172.961c-.695-1.792.056-3.366,2.32-4.245l1.741-.676,3.53-1.427a.2.2,0,0,1,.234.1l.479,1.233a.2.2,0,0,1-.1.235l-3.562,1.343-1.673.648c-1.572.61-1.993,1.629-1.567,2.728.439,1.132,1.713,1.708,3.568,1.377l1.319-.511,3.536-1.41a.2.2,0,0,1,.234.1Z" transform="translate(-0.019 -65.928)" fill="#fff"/>
      <path id="パス_22" data-name="パス 22" d="M136.545,194.243l-.086-.6A71.722,71.722,0,0,0,196.386,108.1l.592-.123a72.278,72.278,0,0,1-60.432,86.264" transform="translate(-53.999 -42.729)" fill="#fff"/>
      <path id="パス_23" data-name="パス 23" d="M1.507,100.308A72.278,72.278,0,0,1,61.939,14.044l.086.6A71.722,71.722,0,0,0,2.1,100.185Z" transform="translate(0 -5.558)" fill="#fff"/>
    </g>
  </g>
</svg>
